<?xml version="1.0" encoding="UTF-8"?>
<svg version="1.1" xmlns="http://www.w3.org/2000/svg" width="1024" height="1024">
<path d="M0 0 C337.92 0 675.84 0 1024 0 C1024 337.92 1024 675.84 1024 1024 C686.08 1024 348.16 1024 0 1024 C0 686.08 0 348.16 0 0 Z " fill="#F8F9FE" transform="translate(0,0)"/>
<path d="M0 0 C124.70873786 0 124.70873786 0 155 25 C156.051875 25.78375 157.10375 26.5675 158.1875 27.375 C175.71930503 43.73801803 188.39744898 68.78015141 189.28356934 92.87940979 C190.19579366 125.61563437 185.08649072 155.10506751 162 180 C143.21392121 198.99955696 119.86405482 206.6893242 94 211 C62.98 211 31.96 211 0 211 C0 141.37 0 71.74 0 0 Z " fill="#2042BB" transform="translate(510,406)"/>
<path d="M0 0 C18.10329221 13.53838605 29.52727381 32.42728629 33.31591797 54.77246094 C36.33153093 79.27374248 32.33380527 104.38102907 17.01171875 124.25390625 C15.89359338 125.63450237 14.76845909 127.00944876 13.63671875 128.37890625 C13.00378906 129.20648437 12.37085938 130.0340625 11.71875 130.88671875 C0.19529494 144.68027284 -20.76445019 153.9149842 -38.36328125 156.37890625 C-43.283059 156.68053569 -48.18538479 156.70377547 -53.11328125 156.69140625 C-54.38171875 156.70751953 -55.65015625 156.72363281 -56.95703125 156.74023438 C-80.83334804 156.75241617 -101.38765271 148.06285733 -118.36328125 131.37890625 C-119.30300781 130.45851563 -119.30300781 130.45851563 -120.26171875 129.51953125 C-129.58858622 119.64402452 -134.79680662 107.28752293 -138.36328125 94.37890625 C-138.60949219 93.51523437 -138.85570312 92.6515625 -139.109375 91.76171875 C-144.54046155 68.31440718 -139.29503692 41.8645886 -127.36328125 21.37890625 C-124.91114768 17.82601533 -122.25287778 14.58271133 -119.36328125 11.37890625 C-118.77160156 10.69441406 -118.17992187 10.00992187 -117.5703125 9.3046875 C-105.05316776 -4.28001756 -87.94250398 -10.73154772 -70.36328125 -14.62109375 C-69.58210938 -14.81703125 -68.8009375 -15.01296875 -67.99609375 -15.21484375 C-44.78112994 -18.79697466 -19.30898351 -13.24500522 0 0 Z " fill="#2041BB" transform="translate(449.36328125,462.62109375)"/>
<path d="M0 0 C17.11209549 14.30062957 28.30751845 33.63394347 30.75 56.0625 C30.88459765 59.48049688 30.89307243 62.89221607 30.875 66.3125 C30.87089111 67.24690918 30.86678223 68.18131836 30.86254883 69.14404297 C30.66809229 93.13537912 23.03366017 113.14488008 6.75 131.0625 C-2.19435736 139.21464285 -12.05323019 144.64047823 -23.25 149.0625 C-23.9203125 149.33497559 -24.590625 149.60745117 -25.28125 149.88818359 C-35.53612496 153.88648323 -45.54767609 154.50869014 -56.5 154.5625 C-57.74289795 154.56894531 -58.9857959 154.57539062 -60.26635742 154.58203125 C-85.282803 154.23745667 -105.63549999 144.64545556 -123.18359375 127.1328125 C-130.38041311 119.40705096 -135.02109004 110.36433664 -138.5625 100.5 C-138.80492432 99.828479 -139.04734863 99.15695801 -139.29711914 98.46508789 C-142.54615446 88.91538006 -143.61895605 79.42663075 -143.5625 69.375 C-143.55758545 68.32916748 -143.5526709 67.28333496 -143.54760742 66.20581055 C-143.19279722 42.5463387 -135.11324627 21.95569875 -118.25 5.0625 C-117.63769531 4.43859375 -117.02539062 3.8146875 -116.39453125 3.171875 C-85.92569442 -25.6728234 -32.22760361 -25.14141366 0 0 Z " fill="#2041BB" transform="translate(861.25,464.9375)"/>
<path d="M0 0 C54.12 0 108.24 0 164 0 C164 13.86 164 27.72 164 42 C145.52 42 127.04 42 108 42 C108 97.77 108 153.54 108 211 C90.84 211 73.68 211 56 211 C56 155.23 56 99.46 56 42 C37.52 42 19.04 42 0 42 C0 28.14 0 14.28 0 0 Z " fill="#2244BC" transform="translate(130,406)"/>
<path d="M0 0 C42.34217507 0 42.34217507 0 54 5 C55.04027344 5.43441406 56.08054687 5.86882812 57.15234375 6.31640625 C69.4062879 12.21645343 78.50900771 23.2355271 83.05859375 35.9609375 C88.82974917 56.11856168 88.00861895 79.12513004 78.078125 97.734375 C70.22874058 110.06912195 58.65098437 116.75302708 45 121 C33 123 33 123 0 123 C0 82.41 0 41.82 0 0 Z " fill="#EEF1FE" transform="translate(561,450)"/>
<path d="M0 0 C8.74991653 5.94363699 14.10317066 14.65800494 16.53125 24.890625 C18.58582852 38.5193292 17.4581451 53.05057296 9.7265625 64.78125 C3.62255347 72.62531591 -4.1793701 77.39080031 -14 79 C-24.21544326 79.97062623 -32.85207547 77.93679589 -40.875 71.375 C-45.25801555 67.18016401 -47.735709 62.57433888 -50 57 C-50.52787109 55.79923828 -50.52787109 55.79923828 -51.06640625 54.57421875 C-55.53382173 42.25611497 -53.83545396 26.44574543 -49.00390625 14.546875 C-45.10648598 6.61717562 -38.04794143 -0.11908809 -29.77734375 -3.375 C-19.98745351 -5.57806953 -8.68817224 -5.3526765 0 0 Z " fill="#EFF2FE" transform="translate(414,496)"/>
<path d="M0 0 C8.7859804 5.96813443 14.10110384 14.69067694 16.53125 24.9609375 C18.60413907 38.40016832 17.41161031 53.28883453 9.7265625 64.81640625 C3.56093323 72.61411386 -4.16409952 77.38829808 -14 79 C-24.21544326 79.97062623 -32.85207547 77.93679589 -40.875 71.375 C-45.27296223 67.12625434 -47.83111749 62.68162163 -50 57 C-50.31839844 56.18015625 -50.63679687 55.3603125 -50.96484375 54.515625 C-55.41038888 40.99461218 -54.12087995 24.95788032 -47.875 12.25 C-43.75198878 5.44826593 -37.22267995 -0.44397134 -29.77734375 -3.375 C-19.98745351 -5.57806953 -8.68817224 -5.3526765 0 0 Z " fill="#EFF2FE" transform="translate(823,496)"/>
</svg>
